<svg xmlns="http://www.w3.org/2000/svg" viewBox="0 0 64 64">
<!-- Shaolin.TW 印章 E2：朱砂白文，少林交錯，華文行楷（行楷-繁 粗體，文字已轉外框） -->
<rect x="2" y="2" width="60" height="60" rx="6" fill="#b13c2c"/>
<g fill="#f6f3ec">
<g transform="translate(2.576,36.239) scale(0.044545,-0.044545)"><path d="M850 515Q850 505 846.5 498.5Q843 492 832.5 487.0Q822 482 802.0 478.0Q782 474 748 470Q710 422 661.5 352.0Q613 282 562 202Q533 157 497.0 112.0Q461 67 418.0 25.0Q375 -17 324.0 -54.0Q273 -91 215 -121Q199 -131 151 -129Q136 -128 134.5 -124.0Q133 -120 146 -114Q176 -98 216.0 -63.5Q256 -29 302.0 19.5Q348 68 397.5 128.0Q447 188 496 256Q479 268 460.5 283.0Q442 298 423.0 315.0Q404 332 386.0 349.5Q368 367 353 384Q339 367 329.0 352.0Q319 337 310.5 321.5Q302 306 295.5 289.0Q289 272 283 251Q273 222 260.5 207.5Q248 193 234.0 196.5Q220 200 205.0 224.0Q190 248 175 296Q169 315 171.0 340.0Q173 365 180 379Q197 411 204.0 433.0Q211 455 210 474Q209 491 213.0 494.5Q217 498 228 491Q240 485 251.0 465.0Q262 445 268 410Q286 412 309.0 420.5Q332 429 361 447Q389 464 416.0 478.0Q443 492 466 501Q466 544 465.5 570.0Q465 596 464.0 610.5Q463 625 461.5 631.0Q460 637 458 640Q451 648 443.0 658.0Q435 668 427.5 678.0Q420 688 413.0 697.0Q406 706 402 712Q396 718 399.5 721.5Q403 725 422 723Q457 717 487.0 707.0Q517 697 546 677Q565 663 572.0 634.5Q579 606 572 583Q569 571 567.5 559.5Q566 548 565 530Q597 539 635.5 547.5Q674 556 707 562Q697 588 700.5 592.0Q704 596 721 584Q749 625 742.5 631.0Q736 637 698 620Q701 632 713.0 642.0Q725 652 751 662Q759 665 771.0 664.5Q783 664 795.0 660.0Q807 656 817.5 650.5Q828 645 832 639Q844 622 840.5 604.5Q837 587 815 558Q838 549 844.0 540.5Q850 532 850 515ZM467 490Q444 473 418.0 450.5Q392 428 359 392Q382 380 406.0 378.0Q430 376 450 381Q456 382 459.0 385.5Q462 389 464.0 400.5Q466 412 466.5 433.0Q467 454 467 490ZM654 481Q633 488 619.0 492.5Q605 497 595.0 499.0Q585 501 578.5 501.5Q572 502 565 501Q566 457 564.0 412.5Q562 368 557 342Q570 360 584.0 380.5Q598 401 611.5 420.0Q625 439 636.5 455.0Q648 471 654 481Z"/></g>
<g transform="translate(17.650,53.630) scale(0.042613,-0.042613)"><path d="M953 44Q949 35 930.0 38.0Q911 41 875 70Q858 82 835.0 98.0Q812 114 788.0 129.5Q764 145 743.0 158.0Q722 171 710 177Q711 164 713.0 140.0Q715 116 716.5 91.5Q718 67 719.0 46.5Q720 26 720 20Q720 15 717.5 1.0Q715 -13 711.0 -30.0Q707 -47 702.5 -64.0Q698 -81 694 -91Q685 -114 675.0 -114.0Q665 -114 657 -101Q649 -90 635.0 -76.5Q621 -63 592 -42Q585 -37 570.5 -21.0Q556 -5 539.5 14.5Q523 34 507.0 54.0Q491 74 482 88Q468 76 453.5 79.0Q439 82 431 97Q423 111 422.5 121.0Q422 131 426 138Q437 158 441 141Q445 128 461 139Q474 148 490.0 166.0Q506 184 517 202Q495 202 486 197Q477 194 473.5 194.0Q470 194 474.5 199.0Q479 204 494.0 214.5Q509 225 537 244Q548 263 556.0 286.5Q564 310 563 323Q540 309 512 326Q482 307 445.0 273.0Q408 239 381 201Q378 192 376.0 175.5Q374 159 373.5 140.5Q373 122 373.0 104.0Q373 86 374 74Q375 63 376.5 43.0Q378 23 379.0 0.5Q380 -22 381.0 -43.5Q382 -65 382 -77Q382 -92 380.0 -98.5Q378 -105 372.0 -102.0Q366 -99 356.5 -85.0Q347 -71 333 -43Q321 -23 318.0 -4.5Q315 14 319 49Q321 68 322.0 85.0Q323 102 322 111Q313 104 306.5 93.0Q300 82 293 67Q282 43 262.5 36.0Q243 29 236 38Q214 61 216 79Q217 94 212.5 110.0Q208 126 204 133Q200 140 201.0 147.5Q202 155 205.5 162.0Q209 169 215.0 173.5Q221 178 227 178Q237 178 251.0 188.0Q265 198 280 219Q299 246 310.0 264.5Q321 283 326.0 297.0Q331 311 331.5 323.0Q332 335 331 350Q304 330 276.5 308.5Q249 287 226 267Q207 251 194.5 249.0Q182 247 172 256Q158 268 142.5 282.5Q127 297 113.0 309.5Q99 322 89.0 332.0Q79 342 76 347Q62 363 69.5 369.0Q77 375 112 367Q135 360 176 386Q211 409 253.0 433.5Q295 458 343 486Q343 531 346.0 563.5Q349 596 352 602Q362 622 348 654Q340 673 345.5 677.5Q351 682 366 670Q396 648 414.0 631.0Q432 614 440.0 601.0Q448 588 447.0 578.0Q446 568 440 559Q435 551 432.5 538.0Q430 525 430 513Q441 512 448.0 506.0Q455 500 466 477Q474 460 468.0 446.5Q462 433 447 428Q422 421 412 410Q407 389 409.0 362.0Q411 335 416 317Q434 331 455.0 345.5Q476 360 493 370Q496 377 501.5 380.0Q507 383 519 390Q559 411 590.0 431.0Q621 451 644 470Q642 513 643.0 548.0Q644 583 646 615Q648 632 640.0 643.5Q632 655 619 657Q603 658 603 672Q603 712 629 706Q649 701 666.5 692.0Q684 683 703 666Q716 654 720.0 646.0Q724 638 724 624Q724 597 721.0 565.5Q718 534 715 515Q729 520 746.0 522.0Q763 524 785 524Q813 524 823.5 518.0Q834 512 840 487Q843 475 829.0 462.5Q815 450 787 442Q767 435 746.5 424.5Q726 414 706 395Q705 376 704.5 354.0Q704 332 704.0 312.0Q704 292 704.5 275.0Q705 258 706 248Q773 224 811.5 209.5Q850 195 871.0 185.5Q892 176 902.0 167.5Q912 159 922 147Q973 90 953 44ZM651 263Q650 278 649.5 295.5Q649 313 647 325Q632 315 621.5 297.0Q611 279 606 265Q617 267 630.0 266.5Q643 266 651 263ZM652 59Q652 80 652.0 102.5Q652 125 651.5 145.0Q651 165 651.0 181.0Q651 197 651 204Q643 206 633.0 207.0Q623 208 612.5 209.0Q602 210 592.5 209.5Q583 209 578 208Q564 183 539.5 150.0Q515 117 491 94Q510 72 541.5 52.5Q573 33 598 26Q628 18 640.0 24.5Q652 31 652 59Z"/></g>
</g></svg>